<svg xmlns="http://www.w3.org/2000/svg" xmlns:xlink="http://www.w3.org/1999/xlink" version="1.1" class="marks" width="88" height="119" viewBox="0 0 88 119"><g fill="none" stroke-miterlimit="10" transform="translate(73,14)"><g class="mark-group role-frame root" role="graphics-object" aria-roledescription="group mark container"><g transform="translate(0,0)"><path class="background" aria-hidden="true" d="M0,0h0v0h0Z"/><g><g class="mark-path role-mark" role="graphics-symbol" aria-roledescription="path mark container"><path transform="translate(0,0)" d="M9.999999999957833,0.008000000000000009C9.999999999957833,25.004000666666666 10.00000000002108,25.004000666666666 10.00000000002108,50.00000133333333" stroke="#ccc" stroke-width="1"/><path transform="translate(0,0)" d="M10.00000000002108,50.00000133333333C10.00000000002108,74.99599933333333 10.000000000000005,74.99599933333333 10.000000000000005,99.99199733333333" stroke="#ccc" stroke-width="1"/></g><g class="mark-path role-mark" role="graphics-symbol" aria-roledescription="path mark container"/><g class="mark-symbol role-mark nodes" role="graphics-symbol" aria-roledescription="symbol mark container"><path transform="translate(10,0)" d="M4.183300132670378,0A4.183300132670378,4.183300132670378,0,1,1,-4.183300132670378,0A4.183300132670378,4.183300132670378,0,1,1,4.183300132670378,0" fill="#3182bd"/><path transform="translate(10,50)" d="M4.183300132670378,0A4.183300132670378,4.183300132670378,0,1,1,-4.183300132670378,0A4.183300132670378,4.183300132670378,0,1,1,4.183300132670378,0" fill="#6baed6"/><path transform="translate(10,100)" d="M4.183300132670378,0A4.183300132670378,4.183300132670378,0,1,1,-4.183300132670378,0A4.183300132670378,4.183300132670378,0,1,1,4.183300132670378,0" fill="#9ecae1"/></g><g class="mark-text role-mark labels" role="graphics-object" aria-roledescription="text mark container"><text text-anchor="end" transform="translate(5,-5)" font-family="sans-serif" font-size="11px" font-weight="normal" fill="black">split_channels</text><text text-anchor="end" transform="translate(5,45)" font-family="sans-serif" font-size="11px" font-weight="normal" fill="black">cellprofiler</text><text text-anchor="end" transform="translate(5,95)" font-family="sans-serif" font-size="11px" font-weight="normal" fill="black">Data_Analysis</text></g></g><path class="foreground" aria-hidden="true" d="" display="none"/></g></g></g></svg>